<svg width="17" height="16" viewBox="0 0 17 16" fill="none" xmlns="http://www.w3.org/2000/svg">
<path fill-rule="evenodd" clip-rule="evenodd" d="M2.49799 3.47173L6.09965 6.80255C5.54612 7.39509 4.90991 8.19305 4.52801 8.74282L2.85487 8.20166C2.3629 8.04253 1.64419 7.9859 1.08732 8.04718C1.0566 8.05338 1.02654 8.06036 0.997169 8.06808C0.958092 8.07417 0.920002 8.08094 0.885861 8.10198C0.0933638 8.3781 -0.125561 9.23439 0.479957 9.89845L5.60183 15.5155C6.18364 16.1536 7.04042 16.0634 7.46788 15.3892C7.48446 15.3442 7.50012 15.2972 7.51484 15.2485C7.53118 15.2129 7.54641 15.176 7.54715 15.1331C7.68578 14.5982 7.71908 13.9049 7.61944 13.4173L7.30585 11.8826C7.96311 11.5525 8.80339 11.0114 9.47094 10.4989L12.5484 14.4957C13.1506 15.2778 14.1571 15.1303 14.4616 14.186L14.6379 13.6392C14.8201 13.074 14.8284 12.228 14.6564 11.6466L13.3166 7.11675L14.7955 5.8019C15.2175 5.42664 15.7279 4.77177 15.9714 4.28007C15.9883 4.25575 16.0524 4.14093 16.1287 3.9908C16.2553 3.74151 16.3711 3.47977 16.4653 3.21458C16.7785 2.33251 16.8125 1.59149 16.3207 1.05372C15.8299 0.516994 15.0809 0.473079 14.1611 0.687822C13.884 0.75252 13.6081 0.838851 13.3437 0.937061C13.1844 0.99621 13.062 1.04716 12.9884 1.0804C12.5023 1.26258 11.795 1.688 11.3804 2.05663L9.90622 3.36731L5.34891 1.44989C4.75763 1.20112 3.8658 1.17876 3.26671 1.3975L2.89673 1.53258C2.00074 1.85971 1.80094 2.8271 2.49799 3.47173ZM7.01309 7.65586L7.8707 6.73782L3.45909 2.65796L3.69541 2.57168C3.99779 2.46128 4.56332 2.47549 4.86414 2.60206L10.1478 4.8251L12.2109 2.99079C12.5062 2.72826 13.0797 2.38109 13.4271 2.2509C13.5618 2.19298 13.6616 2.15243 13.7789 2.10887C14.0087 2.0235 14.233 1.95465 14.4453 1.90508C15.0535 1.76309 15.3084 1.799 15.3983 1.89728C15.4814 1.98818 15.4904 2.22449 15.2874 2.79625C15.2158 2.99782 15.1235 3.20941 15.0141 3.42485C15.0021 3.4485 14.9891 3.47348 14.9773 3.49609C14.9487 3.55101 14.9274 3.59204 14.9451 3.56645L14.8513 3.72525C14.6831 4.06487 14.274 4.59291 13.9649 4.86774L11.8928 6.71005L13.4578 12.0011C13.5585 12.3418 13.553 12.9305 13.4482 13.2556L13.3664 13.5092L9.69981 8.74727L8.70971 9.50744C8.09056 9.9828 7.31712 10.4781 6.7448 10.7656L5.88954 11.1952L6.39475 13.6675C6.43888 13.8835 6.4374 14.2203 6.39382 14.5289L1.60154 9.27328C1.91937 9.27721 2.25289 9.32071 2.47019 9.391L5.0256 10.2175L5.55462 9.45596C5.92475 8.92313 6.52707 8.17612 7.01309 7.65586Z" fill="#9B3ACB"/>
</svg>
