<svg width="19" height="18" viewBox="0 0 19 18" fill="none" xmlns="http://www.w3.org/2000/svg">
<path fill-rule="evenodd" clip-rule="evenodd" d="M1.73828 15.9072V2.15723H7.98812L7.98864 3.40749L9.23864 3.40697L9.2376 0.907227H0.488281V17.1572H9.86376V12.1572H12.3591L12.3633 17.1572H16.7383V10.5411L17.9389 11.7418L18.8228 10.8579L11.1133 3.14834L3.40375 10.8579L4.28763 11.7418L5.48828 10.5411V15.9072H1.73828ZM6.73828 9.29111V15.9072H8.61376V10.9072H13.6081L13.6123 15.9072H15.4883V9.29111L11.1133 4.91611L6.73828 9.29111Z" fill="#1FA397"/>
<path d="M4.85745 3.40723H2.98828V4.65723H4.85745V3.40723Z" fill="#1FA397"/>
<path d="M2.98828 5.90723H4.86578V7.15723H2.98828V5.90723Z" fill="#1FA397"/>
</svg>
