<svg width="17" height="16" viewBox="0 0 17 16" fill="none" xmlns="http://www.w3.org/2000/svg">
<path fill-rule="evenodd" clip-rule="evenodd" d="M12.1072 0.50293C10.6629 0.50293 9.6359 1.01778 8.84265 1.92338C8.79541 1.97732 8.72856 2.06147 8.65415 2.15843C8.57975 2.06147 8.5129 1.97732 8.46566 1.92338C7.67241 1.01778 6.64536 0.50293 5.20111 0.50293C2.42319 0.50293 0.52832 2.29646 0.52832 5.73097C0.52832 5.79769 0.529709 5.86456 0.532475 5.93159C0.621746 8.09499 2.09598 10.3091 4.47996 12.5083C5.32058 13.2838 6.21892 14.003 7.1172 14.6491C7.43173 14.8753 7.72413 15.0765 7.98714 15.2504C8.07975 15.3116 8.16226 15.3652 8.23376 15.4108C8.2578 15.4261 8.2674 15.4322 8.27701 15.4383C8.2834 15.4423 8.28979 15.4463 8.30044 15.453L8.31842 15.4643L8.32572 15.4688L8.65415 15.6717L8.98259 15.4688C9.04652 15.4293 9.16181 15.3558 9.32117 15.2504C9.58418 15.0765 9.87658 14.8753 10.1911 14.6491C11.0894 14.003 11.9877 13.2838 12.8284 12.5083C15.2123 10.3091 16.6866 8.09499 16.7758 5.93159C16.7786 5.86456 16.78 5.79769 16.78 5.73097C16.78 2.29646 14.8851 0.50293 12.1072 0.50293ZM11.9808 11.5896C11.1806 12.3277 10.3209 13.0159 9.46121 13.6343C9.1694 13.8442 8.89814 14.0311 8.65415 14.1929C8.41017 14.0311 8.1389 13.8442 7.8471 13.6343C6.98737 13.0159 6.1277 12.3277 5.32752 11.5896C3.16624 9.59578 1.85338 7.62401 1.78141 5.88006C1.77935 5.83014 1.77832 5.78044 1.77832 5.73097C1.77832 3.00265 3.09865 1.75293 5.20111 1.75293C6.26596 1.75293 6.95888 2.10028 7.52537 2.74701C7.63601 2.87332 7.73903 3.00701 7.85854 3.17541C7.86247 3.18095 7.87674 3.2014 7.89713 3.23065C7.96596 3.32934 8.1046 3.52816 8.15148 3.59161L8.65415 4.27195L9.15683 3.59161C9.20371 3.52816 9.34235 3.32934 9.41118 3.23065C9.43157 3.2014 9.44584 3.18095 9.44977 3.17541C9.56928 3.00701 9.6723 2.87332 9.78294 2.74701C10.3494 2.10028 11.0423 1.75293 12.1072 1.75293C14.2097 1.75293 15.53 3.00265 15.53 5.73097C15.53 5.78044 15.529 5.83014 15.5269 5.88006C15.4549 7.62401 14.1421 9.59578 11.9808 11.5896Z" fill="#D9539E"/>
</svg>
